<?xml version="1.0" encoding="UTF-8"?>
<svg width="100pt" height="100pt" version="1.1" viewBox="0 0 100 100" xmlns="http://www.w3.org/2000/svg">
 <g>
  <path d="m14.898 79.527l-1.1719-3.4688-2.4961 3.9844z"/>
  <path d="m47.781 81.758l3.0508-20.258-16.551-6.5078 9.7227 26.766z"/>
  <path d="m42.406 81.758l-1.8672-5.1406-1.4102 5.1406z"/>
  <path d="m83.441 81.758l-3.0977-5.9883-0.89062 5.9883z"/>
  <path d="m92.195 43.148l1.9492 3.8164-1.6875-6.8477z"/>
  <path d="m13.117 40.164c-0.003907-0.007812 0-0.015624 0-0.019531l-0.40625-15.535-8.3164 18.633 9.043 9.0859z"/>
  <path d="m87.359 81.758l2.2695-26.262-14.52 6.8984 10.02 19.363z"/>
  <path d="m18.191 22.746l-4.0469-0.58984 0.46094 17.48 6.4648 4.5156z"/>
  <path d="m18.387 76.957l-4.8359-22.391-8.3125-8.3477 11.012 32.621z"/>
  <path d="m91.32 35.828l-13.082-12.562-43.648 30.234 17.23 6.7773 22.117 1.0156 15.84-7.5273z"/>
  <path d="m37.277 49.816l38.555-26.711-35.992 0.83594 8.6094 11.84c0.20312 0.28125 0.1875 0.66406-0.035157 0.92578z"/>
  <path d="m35.273 20.215l-9.3867 40.688 21.004-24.715z"/>
  <path d="m33.957 19.25l-14.605 0.85547 5.3086 39.453z"/>
 </g>
</svg>
