<?xml version="1.0" encoding="UTF-8"?>
<svg width="100pt" height="100pt" version="1.1" viewBox="0 0 100 100" xmlns="http://www.w3.org/2000/svg">
 <g>
  <path d="m53.723 69.672l-4.3594 7.2578h4.3594z"/>
  <path d="m15.168 70.316c0.042969-0.085937 0.10156-0.16406 0.17188-0.23047l6.7227-9.0664-14.707-0.66016 3.6445 15.574z"/>
  <path d="m71.023 26.445l1.543-0.28516-1.543-1.7539z"/>
  <path d="m15.574 72.285l-3.4453 4.6445h4.9102z"/>
  <path d="m5.6484 39.68l-1.2578 3.5312h1.2578z"/>
  <path d="m53.836 66.57l2.418-4.0234-11.605-0.51953 3.6602 13.75 5.4727-9.1094c0.011719-0.035157 0.035156-0.0625 0.054688-0.097657z"/>
  <path d="m95.367 34.371l-4.2148 4.6406 3.7344 2.8906z"/>
  <path d="m71.465 45.34l-11.195-15.48h-45.324l-7.7969 5.8555v23.137l50.078 2.2383z"/>
  <path d="m73.176 27.574l-11.219 2.0586 9.8945 13.68z"/>
  <path d="m94.578 43.562l-5-3.8789c-0.011719-0.007813-0.023437-0.011719-0.03125-0.019532-0.003906-0.003906-0.007813-0.011718-0.011719-0.015624l-14.898-11.547-1.4023 16.672 18.887 3.2695z"/>
 </g>
</svg>
