<?xml version="1.0" encoding="UTF-8"?>
<svg width="100pt" height="100pt" version="1.1" viewBox="0 0 100 100" xmlns="http://www.w3.org/2000/svg">
 <g>
  <path d="m94.477 38.465c-0.63672-0.61719-3.2305-2.9922-5.6445-3.2305l-0.89453-0.089844-0.76172-4.2773c-1.0625 0.46484-2.6016 1.3945-3.5586 3.0898l-0.25 0.44531-0.49219 0.125c-0.15625 0.039062-3.7109 0.92578-7.9375 1.0234-0.42969 1.2891-1.2773 4.4102-0.67969 7.5234l-2.332 0.44531c-0.60547-3.1758 0.023438-6.2539 0.53516-8.0156-1.7695-0.10938-3.3672-0.38281-4.7656-0.82812-0.17578-0.054687-0.33984-0.10156-0.50781-0.14453-0.80859 1.5195-2.1758 5.0938-1.0586 10.477l-2.3242 0.48047c-1.1055-5.3203-0.035157-9.1641 0.92187-11.301-0.76562-0.003906-1.5469 0.074219-2.4453 0.1875-0.82422 0.10547-1.7773 0.23047-2.9531 0.30469-0.70703 1.1562-2.5586 4.9023-1.3125 10.918l-2.3242 0.48047c-1.1094-5.3555-0.019531-9.2188 0.94141-11.344-1.625-0.023437-3.4023-0.14844-5.375-0.39062-0.78516 1.3984-2.3242 5.0352-1.1602 10.656l-2.3242 0.48047c-1.1367-5.4805 0.03125-9.3906 1.0078-11.484-1.4609-0.22656-3-0.49609-4.6484-0.82422-0.30078-0.0625-0.59766-0.10938-0.89453-0.16016l0.11328 0.089843c-0.125 0.16406-3.0547 4.1289-1.5664 11.305l-2.3242 0.48047c-1.2773-6.1562 0.35547-10.344 1.3516-12.184-0.68359-0.054687-1.3555-0.09375-2.0078-0.09375-1.2188 0-2.3438 0.10547-3.3984 0.28125-0.71875 1.1914-2.6953 4.9805-1.832 9.332l-2.3281 0.46484c-0.72266-3.6406 0.17969-6.8711 1.0898-8.9922-6.1875 2.2383-8.8125 7.3086-9.4531 8.7617 0.98828 2.5 5.082 13.902-0.86719 19.34l1.4258 10.34h7.7734c-0.097656-0.33984-0.29688-1.0664-0.6875-1.4883-0.67188-0.72266-1.8711-0.82813-3.5391-0.39844l-0.94141 0.25781-0.42188-0.86719c-0.95312-1.9727-1.7305-6.3516 2.1289-8.8164 3.6406-2.3242 5.1289-4.4688 6.6367-9.5664l0.48438-1.6484 1.3711 1.0391c0.066406 0.050781 6.9688 5.1758 16.621 5.1758 4.4336 0 8.793-1.0703 12.961-3.1875l1.9453-0.98828-0.22656 2.1055c-0.015625 0.13672-1.3203 13.633 5.4844 18.387h7.4492c-0.31641-1.0195-1.0352-2.2578-2.6367-2.2578-0.59375 0-1.2852 0.1875-2.0586 0.49609l-1.125 0.46484-0.42578-1.125c-0.25781-0.6875-2.4531-6.8086 0.19922-9.5625 2.1445-2.2227 6.6641-9.3594 6.8477-12.391l0.0625-1.0234 1.0234-0.085938c0.027343-0.003906 0.69141-0.058594 1.7266-0.058594 2.5742 0 7.2305 0.34375 10.312 2.5703 0.85938-0.1875 2.7891-0.85156 3.3164-3.1055zm-3.1953 2.6289v-2.2266l2.2266 2.5234z"/>
  <path d="m85.605 68.738h8.1016c-0.11719-1.0195-0.42969-2.0508-1.1484-2.4609-1.1758-0.66797-3.2461 0.24609-3.8828 0.625l-0.59766 0.35156-0.60156-0.34766c-3.707-2.1328-4.3398-11.535-4.4102-16.488-0.89453 2.582-2.6836 5.6719-4.3359 8.0742 3.0391 8.5625 6.3945 9.9102 6.875 10.246z"/>
  <path d="m39.109 58.727c0.011719-0.011718 1.0859-1.1094 1.8047-2.8984-2.0664-0.83594-3.6875-1.7227-4.7344-2.3672-0.71875 2.1289-1.5078 3.7969-2.5195 5.1992 2.0273 5.6055 3.3242 8.7266 3.8711 10.082h9.2422c-0.15625-1.0195-0.56641-1.957-1.2188-2.3672-1.4883-0.92969-4.1797 0-5.0898 0.44141l-1.0938 0.52344-0.50781-1.1055c-2.1367-4.6797 0.085938-7.3281 0.18359-7.4414z"/>
  <path d="m10.547 69.375c6.2266-3.0273 10.426-14.152 12.496-21.047l-1.1133-4.9375c-0.78125 3.1289-3.1562 11.82-6.8516 17.949-3.4062 5.5273-6.6914 5.3945-7.9883 5.0586-0.19922-0.074219-0.45703-0.14453-0.64453-0.20703l-0.070312-0.003906c-2.0391-0.75781-3.4492-0.89453-4.0859 0.11328-0.14453 0.22656-0.17578 0.47266-0.18359 0.73047l0.007812-0.011719c-0.16016 1.1914 0.73047 1.8945 1.2578 2.1992l0.03125 0.023438 0.16797 0.082031c0.11328 0.054687 0.1875 0.085937 0.1875 0.085937l-0.003906-0.007812c1.1328 0.51953 2.2617 0.78516 3.3828 0.78516 1.1484 0.003906 2.2891-0.26562 3.4102-0.8125z"/>
 </g>
</svg>
